<svg width="74" height="20" viewBox="0 0 74 20" fill="none" xmlns="http://www.w3.org/2000/svg">
<path d="M27.6587 15.5714V4.36029H35.1834L35.0401 6.79796H30.3174V9.01039H34.9756V11.4008H30.3174V15.5714H27.6587Z" fill="black"/>
<path d="M36.4697 15.5714V3.31766H39.0568V15.5714H36.4697Z" fill="black"/>
<path d="M42.5434 7.55359L44.1737 11.9131H44.206L45.8363 7.55359H48.5237V7.82606L44.79 17.1117C44.1737 18.6375 43.2385 19.6003 41.4827 19.6003C41.3896 19.6003 41.214 19.5821 41.0886 19.5676L40.1068 17.1771C40.3842 17.2205 40.6646 17.2412 40.9453 17.2389C41.2351 17.2693 41.5263 17.1973 41.7698 17.0351C42.0134 16.873 42.1942 16.6305 42.2818 16.3488L42.8013 15.0809L39.8452 7.81516V7.54269L42.5434 7.55359Z" fill="black"/>
<path d="M52.2282 15.5714H49.5874V4.36029H53.9195C56.7359 4.36029 57.8932 6.15494 57.8932 8.04767C57.8932 9.94041 56.7359 11.706 53.9195 11.706H52.2282V15.5714ZM52.2282 6.63811V9.42817H53.511C54.6648 9.42817 55.17 8.86871 55.17 8.03314C55.17 7.19758 54.6791 6.63811 53.511 6.63811H52.2282Z" fill="black"/>
<path d="M59.0471 7.55361H61.6306V8.91594C62.0247 8.24386 62.7056 7.39376 63.8593 7.39376C64.1424 7.39212 64.4243 7.42877 64.6978 7.50275L64.4971 10.1984C64.1998 10.0581 63.8787 9.97672 63.5512 9.95858C62.6805 9.95858 62.014 10.7142 61.6521 11.241V15.5714H59.0579L59.0471 7.55361Z" fill="black"/>
<path d="M69.1875 7.39376C69.7325 7.38097 70.2744 7.47989 70.7808 7.68458C71.2872 7.88927 71.7475 8.19552 72.1343 8.58497C72.5211 8.97442 72.8264 9.43906 73.0318 9.95101C73.2372 10.463 73.3385 11.0117 73.3297 11.5643C73.3297 12.681 72.8921 13.752 72.1133 14.5416C71.3345 15.3312 70.2782 15.7748 69.1768 15.7748C68.0754 15.7748 67.019 15.3312 66.2402 14.5416C65.4614 13.752 65.0239 12.681 65.0239 11.5643C65.0159 11.0101 65.1186 10.46 65.3257 9.947C65.5328 9.43403 65.84 8.96879 66.2289 8.57924C66.6178 8.18969 67.0804 7.88386 67.5888 7.68014C68.0972 7.47642 68.641 7.37901 69.1875 7.39376ZM69.1875 13.3444C70.1657 13.3444 70.7355 12.4762 70.7355 11.5643C70.7355 10.6525 70.1657 9.78057 69.1875 9.78057C68.2093 9.78057 67.636 10.6307 67.636 11.5643C67.636 12.498 68.1914 13.3444 69.1875 13.3444Z" fill="black"/>
<path d="M2.69456 18.6339C2.69456 17.8795 2.09136 17.2679 1.34728 17.2679C0.603197 17.2679 0 17.8795 0 18.6339C0 19.3883 0.603197 19.9999 1.34728 19.9999C2.09136 19.9999 2.69456 19.3883 2.69456 18.6339Z" fill="#5A9DF8"/>
<path d="M12.079 0.000821715C14.5335 0.000821715 16.9915 0.000821715 19.4496 0.000821715C19.7004 0.000821715 19.8079 0.0625808 19.8079 0.342313C19.8079 4.40873 19.8079 8.47151 19.8079 12.5307C19.8079 13.2245 19.8294 13.9221 19.8079 14.6159C19.8072 15.7771 19.4295 16.9057 18.733 17.8274C18.0174 18.8254 16.9587 19.515 15.7661 19.7601C15.3747 19.8358 14.9782 19.8807 14.58 19.8945C13.273 19.9382 11.9652 19.8322 10.6815 19.5785C8.66755 19.2169 6.76102 18.3957 5.10611 17.1771C4.67871 16.8659 4.27724 16.5196 3.90574 16.1418C3.08633 15.2997 2.3901 14.343 1.83824 13.3008C1.33858 12.315 0.949176 11.2756 0.677292 10.202C0.531684 9.63618 0.425125 9.06079 0.358389 8.47999C0.223098 7.49825 0.139372 6.50992 0.107566 5.51918C0.093233 3.2123 1.15027 1.52664 3.17119 0.47673C3.82441 0.149097 4.54588 -0.0141453 5.27452 0.000821715H12.079ZM11.7207 8.16392C11.717 8.22865 11.7086 8.29301 11.6956 8.35647C11.4591 9.00675 11.1975 9.64614 10.9789 10.3037C10.5809 11.5504 10.4121 12.8606 10.4809 14.1691C10.5032 15.1251 10.7846 16.0564 11.2943 16.8611C11.6953 17.4871 12.2695 17.9793 12.9452 18.2759C13.6208 18.5725 14.3678 18.6604 15.0924 18.5286C16.6153 18.3288 17.6258 17.4387 18.2062 16.0037C18.4259 15.3575 18.5149 14.673 18.4678 13.9911C18.4678 13.1119 18.4678 12.2328 18.4678 11.3536V8.71976C18.4678 7.8406 18.4678 6.96144 18.4678 6.08228C18.4678 5.20312 18.4678 4.32033 18.4678 3.44117V2.47119C18.4678 2.30771 18.4678 2.14423 18.4678 1.98438C18.4822 1.83336 18.4822 1.68129 18.4678 1.53027C18.4603 1.48866 18.4438 1.44922 18.4197 1.41471C18.3956 1.3802 18.3643 1.35144 18.3281 1.33046C18.2778 1.31117 18.2241 1.30251 18.1704 1.30503H17.5577C17.3355 1.30503 17.1205 1.30503 16.8984 1.30503H15.5977C14.7305 1.30503 13.8562 1.34499 12.9891 1.34499H5.19569C4.28784 1.3325 3.4115 1.68216 2.75554 2.31861C1.62325 3.40847 1.13952 4.77807 1.57667 6.36201C1.78897 7.20864 2.28406 7.95452 2.9777 8.47272C3.92902 9.14145 5.06701 9.48274 6.22406 9.44633C7.44304 9.45391 8.65451 9.25248 9.80725 8.85054C10.4236 8.63257 11.0578 8.40733 11.7278 8.16756L11.7207 8.16392Z" fill="url(#paint0_linear_0_16901)"/>
<path d="M16.5149 3.37579C15.8806 5.74443 15.2464 8.09854 14.5907 10.5544C14.5019 10.4562 14.4216 10.3504 14.3506 10.2383C13.9744 9.4863 13.5731 8.71976 13.1646 7.99319C13.108 7.90402 13.0818 7.79845 13.0903 7.69275C13.0987 7.58705 13.1412 7.48709 13.2112 7.40829L14.6158 5.45016C14.6803 5.35934 14.7268 5.26125 14.7842 5.1668L14.691 5.06145C14.5083 5.1777 14.3327 5.28668 14.1428 5.42473C13.5766 5.82799 13.0105 6.2385 12.4479 6.64539C12.3674 6.71376 12.2676 6.75474 12.1628 6.76256C12.058 6.77039 11.9535 6.74465 11.8639 6.68898C11.0792 6.2603 10.2837 5.84978 9.49181 5.432C9.43269 5.3873 9.37862 5.33613 9.33057 5.27942L16.4181 3.31403L16.5149 3.37579Z" fill="#5A9DF8"/>
<defs>
<linearGradient id="paint0_linear_0_16901" x1="5.61492" y1="17.5695" x2="16.8478" y2="-1.61984" gradientUnits="userSpaceOnUse">
<stop stop-color="#192AE9"/>
<stop offset="1" stop-color="#7BD8D9"/>
</linearGradient>
</defs>
</svg>
